# xmcd
#
# Track frame offsets:
#	150
#	12977
#	25347
#	42450
#	55332
#	65700
#	79530
#	91707
#	103252
#	114855
#	126492
#	139545
#
# Disc length: 2026 seconds
#
# Revision: 0
# Processed by: cddbd v1.5.1PL0 Copyright (c) Steve Scherf et al.
# Submitted via: dBpowerAMP V4.0
#
DISCID=9e07e80c
DTITLE=Various Artist - Blues For Dummies
DYEAR=1998
DGENRE=Blues
TTITLE0=Muddy Waters/Hoochie Coochie Man
TTITLE1=Little Walter/Juke
TTITLE2=B.B. King/Sweet Little Angel (live)
TTITLE3=Howlin' Wolf/Killing Floor
TTITLE4=Buddy Guy/First Time I Met The Blues
TTITLE5=Albert Collins/Frosty
TTITLE6=Bobby Bland/I Pity The Fool
TTITLE7=Clarence Gatemouth Brown/Okie Dokie Stomp
TTITLE8=Lightnin' Slim/Rooster Blues
TTITLE9=John Lee Hooker/Walkin' The Boogie (alternate take)
TTITLE10=Lightnin' Hopkins/I'm Wild About You Baby
TTITLE11=Louis Jordan/Let The Good Times Roll
EXTD=CD comes with the "Blues for Dummies" book.
EXTT0=
EXTT1=
EXTT2=
EXTT3=
EXTT4=
EXTT5=
EXTT6=
EXTT7=
EXTT8=
EXTT9=
EXTT10=
EXTT11=
PLAYORDER=
